<svg width="113" height="40" viewBox="0 0 113 40" fill="none" xmlns="http://www.w3.org/2000/svg">
<circle cx="20" cy="20" r="20" fill="url(#paint0_linear_6_21)"/>
<path d="M58.1136 24V6.54545H60.2273V22.125H68.3409V24H58.1136ZM76.6591 24.2727C75.4773 24.2727 74.4403 23.9915 73.5483 23.429C72.6619 22.8665 71.9688 22.0795 71.4688 21.0682C70.9744 20.0568 70.7273 18.875 70.7273 17.5227C70.7273 16.1591 70.9744 14.9687 71.4688 13.9517C71.9688 12.9347 72.6619 12.1449 73.5483 11.5824C74.4403 11.0199 75.4773 10.7386 76.6591 10.7386C77.8409 10.7386 78.875 11.0199 79.7614 11.5824C80.6534 12.1449 81.3466 12.9347 81.8409 13.9517C82.3409 14.9687 82.5909 16.1591 82.5909 17.5227C82.5909 18.875 82.3409 20.0568 81.8409 21.0682C81.3466 22.0795 80.6534 22.8665 79.7614 23.429C78.875 23.9915 77.8409 24.2727 76.6591 24.2727ZM76.6591 22.4659C77.5568 22.4659 78.2955 22.2358 78.875 21.7756C79.4545 21.3153 79.8835 20.7102 80.1619 19.9602C80.4403 19.2102 80.5795 18.3977 80.5795 17.5227C80.5795 16.6477 80.4403 15.8324 80.1619 15.0767C79.8835 14.321 79.4545 13.7102 78.875 13.2443C78.2955 12.7784 77.5568 12.5455 76.6591 12.5455C75.7614 12.5455 75.0227 12.7784 74.4432 13.2443C73.8636 13.7102 73.4347 14.321 73.1562 15.0767C72.8778 15.8324 72.7386 16.6477 72.7386 17.5227C72.7386 18.3977 72.8778 19.2102 73.1562 19.9602C73.4347 20.7102 73.8636 21.3153 74.4432 21.7756C75.0227 22.2358 75.7614 22.4659 76.6591 22.4659ZM90.9453 29.1818C89.9737 29.1818 89.1385 29.0568 88.4396 28.8068C87.7408 28.5625 87.1584 28.2386 86.6925 27.8352C86.2322 27.4375 85.8658 27.0114 85.593 26.5568L87.1953 25.4318C87.3771 25.6705 87.6072 25.9432 87.8857 26.25C88.1641 26.5625 88.5447 26.8324 89.0277 27.0597C89.5163 27.2926 90.1555 27.4091 90.9453 27.4091C92.0021 27.4091 92.8743 27.1534 93.5618 26.642C94.2493 26.1307 94.593 25.3295 94.593 24.2386V21.5795H94.4226C94.2749 21.8182 94.0646 22.1136 93.7919 22.4659C93.5249 22.8125 93.1385 23.1222 92.6328 23.3949C92.1328 23.6619 91.4567 23.7955 90.6044 23.7955C89.5476 23.7955 88.5987 23.5455 87.7578 23.0455C86.9226 22.5455 86.2607 21.8182 85.772 20.8636C85.2891 19.9091 85.0476 18.75 85.0476 17.3864C85.0476 16.0455 85.2834 14.8778 85.755 13.8835C86.2266 12.8835 86.8828 12.1108 87.7237 11.5653C88.5646 11.0142 89.5362 10.7386 90.6385 10.7386C91.4908 10.7386 92.1669 10.8807 92.6669 11.1648C93.1726 11.4432 93.5589 11.7614 93.826 12.1193C94.0987 12.4716 94.3089 12.7614 94.4567 12.9886H94.6612V10.9091H96.6044V24.375C96.6044 25.5 96.3487 26.4148 95.8374 27.1193C95.3317 27.8295 94.6499 28.3494 93.7919 28.679C92.9396 29.0142 91.9908 29.1818 90.9453 29.1818ZM90.8771 21.9886C91.6839 21.9886 92.3658 21.804 92.9226 21.4347C93.4794 21.0653 93.9027 20.5341 94.1925 19.8409C94.4822 19.1477 94.6271 18.3182 94.6271 17.3523C94.6271 16.4091 94.4851 15.5767 94.201 14.8551C93.9169 14.1335 93.4964 13.5682 92.9396 13.1591C92.3828 12.75 91.6953 12.5455 90.8771 12.5455C90.0249 12.5455 89.3146 12.7614 88.7464 13.1932C88.1839 13.625 87.7607 14.2045 87.4766 14.9318C87.1982 15.6591 87.0589 16.4659 87.0589 17.3523C87.0589 18.2614 87.201 19.0653 87.4851 19.7642C87.7749 20.4574 88.201 21.0028 88.7635 21.4006C89.3317 21.7926 90.0362 21.9886 90.8771 21.9886ZM105.604 24.2727C104.423 24.2727 103.386 23.9915 102.494 23.429C101.607 22.8665 100.914 22.0795 100.414 21.0682C99.9197 20.0568 99.6726 18.875 99.6726 17.5227C99.6726 16.1591 99.9197 14.9687 100.414 13.9517C100.914 12.9347 101.607 12.1449 102.494 11.5824C103.386 11.0199 104.423 10.7386 105.604 10.7386C106.786 10.7386 107.82 11.0199 108.707 11.5824C109.599 12.1449 110.292 12.9347 110.786 13.9517C111.286 14.9687 111.536 16.1591 111.536 17.5227C111.536 18.875 111.286 20.0568 110.786 21.0682C110.292 22.0795 109.599 22.8665 108.707 23.429C107.82 23.9915 106.786 24.2727 105.604 24.2727ZM105.604 22.4659C106.502 22.4659 107.241 22.2358 107.82 21.7756C108.4 21.3153 108.829 20.7102 109.107 19.9602C109.386 19.2102 109.525 18.3977 109.525 17.5227C109.525 16.6477 109.386 15.8324 109.107 15.0767C108.829 14.321 108.4 13.7102 107.82 13.2443C107.241 12.7784 106.502 12.5455 105.604 12.5455C104.707 12.5455 103.968 12.7784 103.388 13.2443C102.809 13.7102 102.38 14.321 102.102 15.0767C101.823 15.8324 101.684 16.6477 101.684 17.5227C101.684 18.3977 101.823 19.2102 102.102 19.9602C102.38 20.7102 102.809 21.3153 103.388 21.7756C103.968 22.2358 104.707 22.4659 105.604 22.4659Z" fill="black"/>
<defs>
<linearGradient id="paint0_linear_6_21" x1="20" y1="0" x2="20" y2="40" gradientUnits="userSpaceOnUse">
<stop stop-color="#FD127A"/>
<stop offset="1" stop-color="#AE03B6"/>
</linearGradient>
</defs>
</svg>
